<svg version="1.1" id="Layer_1" xmlns="http://www.w3.org/2000/svg" x="0" y="0" viewBox="0 0 122.88 85.48" style="enable-background:new 0 0 122.88 85.48" xml:space="preserve"><style>.st2{fill:#fff}.st3{fill:#008}</style><path d="M6.71 0h109.46c3.7.02 6.71 3.05 6.71 6.75v71.98c0 3.71-3.04 6.75-6.75 6.75H6.71C3.02 85.46 0 82.43 0 78.73V6.75C0 3.05 3.01.02 6.71 0z" style="fill:#f93"/><path class="st2" d="M0 28.49h122.88v28.5H0v-28.5z"/><path d="M0 56.99h122.88v21.74c0 3.71-3.04 6.75-6.75 6.75H6.71C3.02 85.46 0 82.43 0 78.73V56.99z" style="fill:#128807"/><path class="st3" d="M72.84 42.74c0-6.3-5.1-11.4-11.4-11.4s-11.4 5.1-11.4 11.4c0 6.29 5.1 11.4 11.4 11.4s11.4-5.1 11.4-11.4z"/><path class="st2" d="M71.41 42.74c0-5.51-4.46-9.97-9.97-9.97s-9.97 4.46-9.97 9.97c0 5.51 4.46 9.97 9.97 9.97s9.97-4.46 9.97-9.97z"/><path class="st3" d="M63.43 42.74c0-1.1-.89-2-1.99-2s-1.99.89-1.99 2c0 1.1.89 1.99 1.99 1.99s1.99-.89 1.99-1.99zM71.82 44.11c.04-.27-.16-.52-.43-.56-.27-.04-.52.16-.56.43s.16.52.43.56c.28.03.53-.16.56-.43z"/><path class="st3" d="m61.44 52.71.34-5.98-.34-2.85-.34 2.85.34 5.98z"/><path d="M71.11 46.75c.11-.25-.02-.55-.27-.65-.25-.11-.55.02-.65.27-.11.25.02.55.27.65.26.1.55-.02.65-.27zM58.86 52.37l1.88-5.69.41-2.84-1.07 2.67-1.22 5.86zM69.75 49.12c.17-.22.13-.53-.09-.7-.22-.17-.53-.13-.7.09-.17.22-.13.53.09.7.22.17.53.12.7-.09zM56.45 51.38l3.29-5.01 1.13-2.64-1.72 2.29-2.7 5.36zM67.81 51.05c.22-.17.26-.48.09-.7-.17-.22-.48-.26-.7-.09-.22.17-.26.48-.09.7.17.21.49.26.7.09zM54.39 49.79l4.47-3.99 1.77-2.25-2.25 1.77-3.99 4.47zM65.45 52.42c.25-.11.38-.4.27-.65-.11-.25-.4-.38-.65-.27-.25.1-.38.4-.27.65.1.25.39.37.65.27zM52.8 47.73l5.36-2.7 2.29-1.72-2.64 1.13-5.01 3.29zM62.81 53.12c.27-.04.46-.29.43-.56-.04-.27-.29-.46-.56-.43-.27.04-.46.29-.43.56.03.28.28.47.56.43zM51.81 45.32l5.87-1.22 2.66-1.06-2.84.4-5.69 1.88zM60.07 53.12c.27.04.52-.16.56-.43.04-.27-.16-.52-.43-.56-.27-.04-.52.16-.56.43-.03.28.16.53.43.56zM51.47 42.74l5.98.34 2.85-.34-2.85-.34-5.98.34zM57.43 52.42c.25.11.55-.02.65-.27s-.02-.55-.27-.65c-.25-.11-.55.02-.65.27-.1.25.02.54.27.65zM51.81 40.16l5.69 1.88 2.84.41-2.66-1.07-5.87-1.22zM55.06 51.05c.22.17.53.13.7-.09.17-.22.13-.53-.09-.7-.22-.17-.53-.13-.7.09-.16.22-.12.53.09.7zM52.8 37.75l5.01 3.29 2.64 1.13-2.29-1.72-5.36-2.7zM53.13 49.12c.17.22.48.26.7.09.22-.17.26-.48.09-.7-.17-.22-.48-.26-.7-.09-.21.16-.26.48-.09.7zM54.39 35.69l3.99 4.47 2.25 1.78-1.77-2.26-4.47-3.99zM51.76 46.75c.11.25.4.38.65.27.25-.11.38-.4.27-.65-.11-.25-.4-.38-.65-.27-.25.1-.37.39-.27.65zM56.45 34.1l2.7 5.36 1.72 2.29-1.13-2.63-3.29-5.02zM51.06 44.11c.04.27.29.46.56.43.27-.04.46-.29.43-.56-.04-.27-.29-.46-.56-.43-.28.03-.47.28-.43.56zM58.86 33.11l1.22 5.87 1.07 2.66-.41-2.84-1.88-5.69zM51.06 41.37c-.04.27.16.52.43.56.27.04.52-.16.56-.43.04-.27-.16-.52-.43-.56-.28-.03-.53.16-.56.43zM61.44 32.77l-.34 5.98.34 2.85.34-2.85-.34-5.98zM51.77 38.73c-.11.25.02.55.27.65.25.1.55-.02.65-.27.11-.25-.02-.55-.27-.65-.26-.1-.55.02-.65.27zM64.02 33.11l-1.88 5.69-.41 2.84 1.07-2.66 1.22-5.87zM53.13 36.37c-.17.22-.13.53.09.7.22.17.53.13.7-.09.17-.22.13-.53-.09-.7-.22-.17-.53-.13-.7.09zM66.43 34.1l-3.29 5.02-1.13 2.63 1.72-2.29 2.7-5.36zM55.07 34.43c-.22.17-.26.48-.09.7.17.22.48.26.7.09.22-.17.26-.48.09-.7s-.49-.25-.7-.09zM68.49 35.69l-4.47 3.99-1.77 2.26 2.25-1.78 3.99-4.47zM57.43 33.07c-.25.11-.37.4-.27.65.11.25.4.38.65.27.25-.11.38-.4.27-.65-.1-.26-.39-.38-.65-.27zM70.08 37.75l-5.36 2.7-2.29 1.72 2.64-1.13 5.01-3.29zM60.07 32.36c-.27.04-.46.29-.43.56.04.27.29.46.56.43.27-.04.47-.29.43-.56-.03-.27-.28-.47-.56-.43zM71.07 40.16l-5.87 1.22-2.66 1.07 2.84-.41 5.69-1.88zM62.81 32.36c-.27-.04-.52.16-.56.43-.04.27.16.52.43.56.27.04.52-.16.56-.43.03-.27-.16-.53-.43-.56zM71.41 42.74l-5.98-.34-2.85.34 2.85.34 5.98-.34zM65.45 33.07c-.25-.11-.55.02-.65.27-.11.25.02.55.27.65.25.1.55-.02.65-.27.1-.26-.02-.55-.27-.65zM71.07 45.32l-5.69-1.88-2.84-.4 2.66 1.06 5.87 1.22zM67.81 34.43c-.22-.17-.53-.13-.7.09-.17.22-.13.53.09.7.22.17.53.13.7-.09.17-.22.13-.53-.09-.7zM70.08 47.73l-5.01-3.29-2.64-1.13 2.29 1.72 5.36 2.7zM69.75 36.37c-.17-.22-.48-.26-.7-.09s-.26.48-.09.7c.17.22.48.26.7.09.21-.17.26-.49.09-.7zM68.49 49.79l-3.99-4.47-2.25-1.77 1.77 2.25 4.47 3.99zM71.12 38.73c-.11-.25-.4-.38-.65-.27s-.38.4-.27.65c.11.25.4.37.65.27.25-.1.37-.39.27-.65zM66.43 51.38l-2.7-5.36-1.72-2.29 1.13 2.64 3.29 5.01zM71.82 41.37c-.04-.27-.29-.46-.56-.43-.27.04-.46.29-.43.56.04.27.29.46.56.43.28-.03.47-.28.43-.56zM64.02 52.37l-1.22-5.86-1.07-2.67.41 2.84 1.88 5.69z"/></svg>